<svg xmlns="http://www.w3.org/2000/svg" width="1240" height="1240"><path d="M714.202 366.962c-28.194 7.618-47.402 32.476-47.549 61.538-.07 13.827 3.033 23.954 11.402 37.205 4.505 7.133 5.487 10.591 4.501 15.846-.59 3.149-10.115 12.985-72.868 75.256C469.157 696.258 482.965 683 478.255 683c-3.273 0-5.537-.964-10.924-4.652-14.93-10.222-27.361-13.98-43.243-13.074-27.885 1.59-51.099 20.898-58.116 48.335-5.457 21.336.807 44.075 16.522 59.983 8.168 8.268 13.402 11.525 25.646 15.959 15.718 5.691 19.498 9.687 20.949 22.142 4.158 35.688 30.757 61.313 65.411 63.014 13.133.644 22.221-1.289 34.457-7.33 15.343-7.576 27.69-21.455 33.621-37.795 5.747-15.835 5.278-30.672-1.599-50.507-4.782-13.792-5.211-20.888-1.716-28.352 1.779-3.801 21.594-23.964 96.889-98.593 86.244-85.482 95.057-93.928 99.21-95.091 5.86-1.641 9.599-.904 22.638 4.459 5.775 2.375 13.17 4.81 16.434 5.41 41.374 7.614 78.875-21.909 81.289-63.996 2.107-36.727-24.631-67.71-62.095-71.954-5.909-.67-10.14-1.729-12.345-3.092-3.774-2.333-7.177-8.396-9.745-17.366-5.628-19.659-21.826-36.291-41.538-42.65-9.559-3.083-26.149-3.495-35.798-.888m4.298 26.097c-22.163 7.189-32.487 31.971-22.326 53.587 1.212 2.579 5.065 7.651 8.562 11.272 8.632 8.936 10.636 12.929 10.58 21.082-.05 7.285-1.792 12.118-6.869 19.058-1.834 2.506-51.623 52.479-110.641 111.05C517.809 688.499 489.338 716.16 485.934 717.8c-8.973 4.324-17.564 2.095-24.59-6.382-12.385-14.939-17.175-18.412-28.112-20.383-12.145-2.189-24.51 2.112-33.101 11.513-6.55 7.165-9.345 14.481-9.345 24.452 0 10.933 2.883 17.86 10.626 25.529 6.913 6.846 13.619 10.44 31.837 17.062 13.565 4.93 16.504 7.118 19.845 14.777 1.786 4.092 2.392 7.969 2.988 19.132.412 7.7 1.177 15.363 1.7 17.028 3.278 10.437 10.806 18.96 21.017 23.798 6.138 2.907 7.542 3.174 16.701 3.174s10.563-.267 16.701-3.174c8.532-4.043 15.088-10.601 19.117-19.125 2.873-6.078 3.165-7.584 3.143-16.201-.031-11.989-2.32-18.176-10.007-27.053-10.245-11.83-10.77-21.458-1.932-35.447 4.865-7.701 203.508-204.123 210.711-208.355 10.164-5.971 17.586-8.513 26.169-8.959 9.153-.477 12.979.467 20.674 5.101 15.77 9.496 30.172 10.665 44.669 3.625 26.433-12.836 32.215-48.072 11.319-68.979-8.775-8.78-19.718-12.933-34.076-12.933-17.963 0-29.955-11.098-33.416-30.925-.781-4.47-2.356-10.062-3.5-12.427-8.271-17.086-28.309-25.514-46.572-19.589" fill="undefined" fill-rule="evenodd"/></svg>